<?xml version="1.0" encoding="utf-8"?>
<!DOCTYPE svg PUBLIC "-//W3C//DTD SVG 1.1//EN" "http://www.w3.org/Graphics/SVG/1.1/DTD/svg11.dtd">
<svg version="1.1" id="レイヤー_1" xmlns="http://www.w3.org/2000/svg" xmlns:xlink="http://www.w3.org/1999/xlink" x="0px"
	 y="0px" width="841.89px" height="595.28px" viewBox="0 0 841.89 595.28" enable-background="new 0 0 841.89 595.28"
	 xml:space="preserve">
<g>
	<g>
		<path fill="#F0F2DE" d="M827.413,411.845c-13.288-0.192-26.621-0.447-39.778-0.782c-109.2-2.801-335.523-35.856-446.122-82.056
			c-110.599-46.201-92.99-87.327-164.391-93.415c-71.398-6.087-20.885-98.929-29.284-89.128c-3.703,4.32-23.724,13.535-44.958,22.49
			c-64.317,73.989-87.576,71.254-87.576,71.254s25.216,53.561,73.073,45.953c87.642-13.932,111.261,66.121,125.262,46.501
			c0,0,4.183,96.557,78.568,128.256c-26.933,29.602-65.997,78.246-26.769,73.342c38.019-4.748,66.98-40.459,81.675-62.908
			c120.153,7.206,350.381,26.95,376.123,22.209c0.519-0.099,1.076-0.202,1.634-0.307c-0.213,15.914-0.055,18.135,1.166,47.458
			c2.8,67.309,50.4,60.2,56,0s24.777-90.153,24.777-90.153h-0.005C815.273,440.351,822.514,427.681,827.413,411.845z"/>
		<path fill="#F0F2DE" d="M683.849,468.462c0,0-64.831,113.615-21.611,100.25c43.225-13.366,77.797-100.25,77.797-100.25"/>
		<path fill="#F0F2DE" d="M300.584,411.845c0,0-89.281,65.104-86.991,91.739c2.287,26.639,119.043-56.229,146.518-45.87"/>
		<path fill="#3E2924" d="M32.12,238.59c0,6.959-5.644,12.599-12.601,12.599c-6.956,0-12.6-5.64-12.6-12.599
			c0-6.958,5.644-12.6,12.6-12.6C26.476,225.99,32.12,231.631,32.12,238.59z"/>
		<g>
			<path fill="#F7CC61" d="M447.742,202.256l-27.874,12.123l-20.688,41.09l-32.243,32.761l-6.112,45.603l-0.984,2.3
				c115.682,42.436,324.303,72.274,427.793,74.93c13.157,0.335,26.49,0.59,39.778,0.782c3.265-10.555,5.54-22.454,6.421-35.994
				C843.602,225.907,605.438,209.431,447.742,202.256z"/>
			<path fill="#F7CC61" d="M288.212,244.11l41.592-14.323l27.458-34.41l16.984-7.668c-10.741-11.938-28.667-31.107-47.39-47.853
				c-3.877-3.47-7.794-6.816-11.681-9.991h0.006c0,0-28.744-68.802-30.145-98.202c-0.929-19.529-21.618,30.204-35.415,65.809
				c-14.546-3.082-33.305-4.504-53.829,0.287c-6.917-8.848-21.868-23.018-54.254-42.295c0,0,0.438,38.407,0.273,70.42
				c-7.88,6.74-15.712,14.735-23.373,24.369c-5.316,6.683-10.495,12.873-15.559,18.701c21.235-8.955,41.255-18.17,44.958-22.49
				c8.399-9.8-42.114,83.041,29.284,89.128c41.096,3.502,52.73,18.626,76.27,39.635l2.934-0.687L288.212,244.11z"/>
			<path fill="#F0F2DE" d="M366.937,288.23l32.243-32.761l20.688-41.09l27.874-12.123c-23.187-1.056-44.645-1.913-63.306-2.96
				c0,0-3.844-4.535-10.19-11.586l-16.984,7.668l-27.458,34.41l-41.592,14.323l-31.886,30.43l-2.934,0.687
				c17.358,15.487,41.18,34.171,88.121,53.78c5.783,2.415,11.948,4.785,18.329,7.126l0.984-2.3L366.937,288.23z"/>
		</g>
		<path fill="#3E2924" d="M181.438,178.664c0,6.959-5.645,12.601-12.6,12.601c-6.956,0-12.601-5.642-12.601-12.601
			c0-6.96,5.645-12.6,12.601-12.6C175.793,166.063,181.438,171.704,181.438,178.664z"/>
	</g>
	<path fill="#79171C" d="M287.1,16.234c44.395,7.867,81.948,64.104,89.379,121.648c7.432,57.544-251.61,13.243-255.394-12.239
		C117.295,100.163,150.769-7.929,287.1,16.234z"/>
	<g>
		<g>
			<g>
				<path fill="#F0F2DE" d="M216.06,131.405c-0.153-0.539-0.227-0.806-0.379-1.345c-0.556,0.049-0.845,0.066-1.406,0.112
					c0.177-0.519,0.271-0.762,0.448-1.282c-0.498-0.271-0.732-0.413-1.233-0.684c0.446-0.317,0.671-0.467,1.117-0.787
					c-0.326-0.697-0.498-1.045-0.821-1.742c0.476-0.572,0.711-0.856,1.182-1.427c-0.413-0.654-0.624-0.99-1.032-1.646
					c0.391-0.632,0.583-0.943,0.971-1.578c-0.265-0.397-0.388-0.596-0.653-0.996c-1.017,0.263-1.548,0.386-2.567,0.64
					c-0.688,0.946-1.026,1.417-1.717,2.36c-1.176,0.118-1.758,0.18-2.934,0.29c-0.828,0.815-1.249,1.217-2.086,2.032
					c-1.202-0.072-1.78-0.113-2.981-0.195c-0.032,0.452-0.065,0.673-0.098,1.125c-0.208-0.418-0.297-0.621-0.506-1.04
					c-0.136,0.424-0.232,0.637-0.368,1.061c-0.104-0.449-0.14-0.676-0.238-1.121c-0.244,0.366-0.363,0.543-0.61,0.91
					c0.083-0.418,0.134-0.624,0.216-1.042c-0.21,0.366-0.323,0.552-0.534,0.918c0.125-0.405,0.184-0.615,0.306-1.02
					c-0.238,0.351-0.342,0.522-0.579,0.87c0.153-0.397,0.208-0.591,0.361-0.987c-0.413,0.206-0.607,0.312-1.023,0.517
					c0.156-0.438,0.235-0.656,0.388-1.094c-0.462,0.058-0.703,0.082-1.166,0.14c0.292-0.353,0.441-0.534,0.733-0.887
					c-0.459-0.104-0.7-0.156-1.165-0.263c0.229-0.768,0.345-1.151,0.577-1.919c-0.632-0.558-0.938-0.842-1.566-1.403
					c0.117-0.81,0.166-1.22,0.287-2.029c-0.689-0.476-1.026-0.708-1.707-1.187c-0.003-0.823-0.013-1.23-0.009-2.048
					c-0.475-0.022-0.706-0.033-1.182-0.057c0.32-0.339,0.479-0.514,0.799-0.856c-0.44-0.205-0.672-0.304-1.114-0.512
					c0.43-0.18,0.652-0.271,1.081-0.451c-0.342-0.358-0.522-0.542-0.864-0.9c0.47,0.005,0.717,0.011,1.187,0.014
					c-0.189-0.459-0.296-0.692-0.488-1.151c0.449,0.186,0.674,0.287,1.127,0.473c-0.019-0.489-0.038-0.738-0.057-1.225
					c0.355,0.339,0.533,0.514,0.893,0.853c1.98-1.129,2.97-1.712,4.925-2.874c2.084-0.919,3.11-1.386,5.163-2.34
					c1.185-1.999,1.786-2.994,2.956-5.001c1.523-1.714,2.272-2.581,3.773-4.312c0.593-2.212,0.889-3.309,1.483-5.518
					c0.01-0.27,0.016-0.41,0.026-0.681c-0.363,0.32-0.538,0.484-0.901,0.801c-0.128-0.493-0.198-0.744-0.326-1.236
					c-0.376,0.312-0.577,0.47-0.959,0.78c-0.14-0.498-0.208-0.747-0.348-1.244c-0.489,0.197-0.733,0.292-1.222,0.487
					c0.033-0.561,0.061-0.839,0.092-1.403c-0.502-0.156-0.751-0.233-1.255-0.394c0.329-0.432,0.488-0.657,0.815-1.088
					c-0.321-0.446-0.473-0.662-0.794-1.11c0.41,0.017,0.601,0.019,1.011,0.033c-0.336-0.257-0.495-0.391-0.823-0.648
					c0.411,0.014,0.613,0.025,1.02,0.039c-0.327-0.269-0.498-0.4-0.825-0.67c0.41,0.006,0.613,0,1.023,0
					c-0.342,0.058-0.506,0.087-0.848,0.142c0.332-0.213,0.487-0.325,0.821-0.539c-0.364,0.156-0.547,0.241-0.907,0.396
					c0.336-0.213,0.519-0.32,0.855-0.536c-0.067,0.281-0.106,0.418-0.177,0.7c-0.363-0.265-0.544-0.393-0.906-0.662
					c-0.074,0.47-0.11,0.706-0.183,1.179c-0.26-0.391-0.388-0.588-0.639-0.976c-0.225,0.41-0.342,0.609-0.567,1.02
					c-0.107-0.468-0.159-0.692-0.267-1.157c-0.481,0.262-0.72,0.391-1.206,0.653c-0.232-0.539-0.342-0.81-0.567-1.348
					c-0.498,0.257-0.743,0.38-1.241,0.635c-0.235-0.544-0.356-0.81-0.588-1.354c-0.325,0.235-0.501,0.345-0.825,0.58
					c0.092,0.853,0.153,1.282,0.251,2.136c0.741,0.8,1.108,1.208,1.854,2.006c0.021,1.135,0.039,1.69,0.063,2.825
					c0.743,0.812,1.124,1.222,1.878,2.032c0.003,1.113-0.008,1.668-0.003,2.781c0.458,0.226,0.678,0.336,1.136,0.557
					c-0.4,0.307-0.593,0.457-0.999,0.763c0.29,0.435,0.44,0.653,0.736,1.088c-0.5,0.041-0.742,0.063-1.242,0.101
					c0.048,0.528,0.058,0.795,0.104,1.323c-0.858,0.096-1.277,0.145-2.132,0.235c-0.399,0.801-0.594,1.2-0.992,2.001
					c-0.878,0.099-1.324,0.142-2.204,0.232c-0.413,0.809-0.626,1.222-1.039,2.029c-0.887,0.09-1.324,0.123-2.216,0.206
					c0.009,0.484,0.006,0.73,0.02,1.211c-0.337-0.347-0.5-0.52-0.832-0.867c-0.153,0.446-0.238,0.67-0.4,1.116
					c-0.193-0.446-0.284-0.67-0.48-1.116c-0.305,0.348-0.46,0.522-0.763,0.87c0.115-0.405,0.183-0.599,0.298-1.006
					c-0.17,0.385-0.258,0.568-0.427,0.952c0.131-0.399,0.195-0.599,0.323-0.999c-0.152,0.391-0.219,0.583-0.37,0.971
					c0.128-0.401,0.186-0.601,0.317-1c-0.384,0.249-0.58,0.377-0.96,0.626c0.094-0.465,0.159-0.698,0.252-1.162
					c-0.446,0.087-0.678,0.123-1.124,0.208c0.249-0.389,0.382-0.586,0.633-0.974c-0.07-0.046-0.101-0.071-0.171-0.117
					c-0.815,1.116-1.23,1.67-2.048,2.778c-0.052,1.449-0.085,2.185-0.123,3.633c-0.827,1.127-1.242,1.69-2.073,2.811
					c-0.046,1.458-0.046,2.18-0.088,3.637c-0.831,1.129-1.258,1.692-2.094,2.816c0.2,0.552,0.287,0.836,0.484,1.389
					c-0.561-0.077-0.845-0.118-1.405-0.197c-0.152,0.542-0.222,0.81-0.375,1.351c-0.438-0.399-0.668-0.594-1.105-0.992
					c-0.446,0.32-0.66,0.473-1.102,0.791c-0.577-0.704-0.847-1.05-1.417-1.756c-0.853,0.087-1.279,0.131-2.132,0.213
					c-0.585-0.719-0.889-1.077-1.474-1.799c-0.867,0.068-1.307,0.101-2.174,0.164c-0.586-0.73-0.855-1.096-1.433-1.829
					c-0.54,0.139-0.821,0.208-1.356,0.342c0.055-0.566,0.098-0.856,0.153-1.421c-0.54-0.224-0.812-0.331-1.352-0.558
					c0.372-0.396,0.564-0.596,0.936-0.996c-0.332-0.495-0.503-0.744-0.833-1.238c0.746-0.728,1.104-1.085,1.842-1.815
					c-0.043-1.108-0.055-1.66-0.095-2.768c0.74-0.735,1.109-1.107,1.845-1.846c-0.041-1.107-0.046-1.662-0.082-2.77
					c0.747-0.758,1.107-1.135,1.849-1.896c-0.437,0.375-0.659,0.566-1.093,0.941c-0.61-0.113-0.897-0.172-1.505-0.285
					c-0.134,0.612-0.216,0.919-0.345,1.531c-0.602-0.147-0.894-0.224-1.496-0.377c-0.156,0.594-0.215,0.894-0.37,1.487
					c-0.376-0.32-0.568-0.476-0.938-0.799c-0.107,0.468-0.153,0.698-0.254,1.165c-0.247-0.434-0.375-0.65-0.617-1.083
					c-0.258,0.383-0.387,0.577-0.641,0.96c-0.091-0.484-0.137-0.728-0.227-1.212c-0.2,0.364-0.307,0.539-0.506,0.905
					c0.143-0.399,0.208-0.596,0.351-0.995c-0.232,0.345-0.332,0.514-0.564,0.859c0.167-0.386,0.241-0.583,0.41-0.968
					c-0.254,0.325-0.398,0.498-0.65,0.82c0.052-0.5,0.104-0.754,0.159-1.258c-0.483,0.017-0.74,0.027-1.222,0.041
					c0.26-0.407,0.394-0.615,0.651-1.022c-0.456-0.205-0.694-0.307-1.151-0.512c0.408-0.238,0.61-0.36,1.02-0.599
					c-0.375-0.94-0.55-1.409-0.919-2.349c0.402-0.858,0.588-1.284,0.988-2.146c-0.455-0.896-0.665-1.353-1.108-2.255
					c0.348-0.891,0.511-1.334,0.858-2.226c-0.492-0.875-0.749-1.315-1.236-2.193c0.405-0.268,0.619-0.405,1.022-0.672
					c-0.317-0.418-0.473-0.624-0.793-1.042c0.484-0.027,0.72-0.046,1.204-0.077c-0.106-0.514-0.162-0.771-0.268-1.288
					c0.45,0.224,0.691,0.334,1.143,0.558c1.056-1.083,1.578-1.627,2.622-2.712c1.402-0.449,2.095-0.67,3.487-1.135
					c0.87-1.255,1.298-1.882,2.162-3.139c1.332-0.638,2.002-0.963,3.322-1.616c0.698-1.187,1.026-1.777,1.718-2.97
					c-0.1-0.386-0.155-0.585-0.252-0.971c-0.522,0.203-0.773,0.298-1.292,0.5c-0.225-0.583-0.351-0.87-0.574-1.449
					c-0.534,0.196-0.802,0.295-1.334,0.486c-0.222-0.582-0.337-0.872-0.555-1.455c-0.498,0.134-0.736,0.208-1.233,0.339
					c0.082-0.561,0.12-0.848,0.202-1.408c-0.486-0.219-0.717-0.328-1.2-0.55c0.364-0.391,0.553-0.582,0.919-0.973
					c-0.277-0.487-0.415-0.73-0.692-1.219c0.632-0.495,0.937-0.742,1.569-1.239c-0.064-0.869-0.086-1.318-0.153-2.188
					c0.641-0.514,0.943-0.776,1.578-1.296c-0.061-0.886-0.076-1.323-0.128-2.209c0.632-0.517,0.949-0.779,1.583-1.304
					c-0.123-0.552-0.177-0.82-0.297-1.373c0.492,0.101,0.732,0.15,1.228,0.249c0.189-0.525,0.281-0.795,0.47-1.324
					c0.348,0.405,0.514,0.624,0.864,1.028c0.424-0.303,0.638-0.461,1.058-0.768c-0.125,0.408-0.18,0.602-0.306,1.006
					c0.189-0.37,0.295-0.544,0.484-0.913c-0.131,0.401-0.192,0.593-0.323,0.998c0.199-0.369,0.295-0.55,0.489-0.919
					c0.124,0.319,0.183,0.478,0.31,0.798c0.095-1.54,0.147-2.305,0.251-3.842c0.716-1.288,1.081-1.936,1.799-3.227
					c-0.058-1.518-0.088-2.28-0.134-3.798c0.61-1.362,0.922-2.04,1.532-3.401c-0.167-1.493-0.247-2.243-0.405-3.735
					c0.388-0.123,0.577-0.184,0.965-0.309c-0.27-0.331-0.401-0.498-0.669-0.826c0.394,0.035,0.59,0.055,0.981,0.09
					c-0.159-0.416-0.232-0.624-0.391-1.04c0.362,0.175,0.552,0.257,0.913,0.435c-0.035-0.462-0.065-0.689-0.104-1.148
					c0.286,0.309,0.421,0.454,0.707,0.76c0.086-0.457,0.138-0.676,0.229-1.132c0.181,0.402,0.26,0.604,0.443,1.006
					c0.211-0.402,0.328-0.604,0.541-1.008c0.402,0.508,0.599,0.768,1.001,1.276c0.556-0.325,0.84-0.49,1.395-0.82
					c0.418,0.508,0.639,0.76,1.058,1.266c0.564-0.331,0.833-0.498,1.395-0.829c0.418,0.503,0.615,0.755,1.039,1.255
					c0.131-0.405,0.201-0.599,0.332-1.006c-0.045,0.427-0.069,0.629-0.112,1.056c0.156-0.392,0.241-0.591,0.399-0.982
					c-0.083,0.418-0.118,0.637-0.201,1.056c0.183-0.377,0.28-0.563,0.463-0.941c-0.045,0.454-0.072,0.681-0.116,1.135
					c0.339-0.249,0.512-0.377,0.845-0.626c-0.153,0.426-0.228,0.647-0.381,1.075c0.378-0.126,0.556-0.197,0.934-0.326
					c0.059,0.382,0.076,0.577,0.136,0.959c-0.218-0.437-0.314-0.65-0.527-1.085c0.416-0.082,0.639-0.123,1.055-0.208
					c-0.232-0.402-0.355-0.604-0.587-1.003c0.421-0.101,0.642-0.151,1.061-0.255c-0.224-0.41-0.352-0.629-0.577-1.039
					c0.388,0.011,0.602,0.022,0.99,0.03c-0.178-0.402-0.273-0.599-0.443-1c0.359,0.156,0.54,0.232,0.897,0.385
					c-0.052-0.454-0.088-0.681-0.141-1.135c0.289,0.29,0.431,0.429,0.724,0.714c0.061-0.458,0.095-0.679,0.156-1.132
					c0.189,0.383,0.268,0.574,0.456,0.957c0.17-0.418,0.265-0.637,0.436-1.058c0.076,0.437,0.112,0.675,0.189,1.113
					c0.262-0.35,0.391-0.531,0.656-0.881c0.532,0.769,0.809,1.144,1.35,1.909c0.858-0.008,1.285-0.011,2.146-0.027
					c0.538,0.757,0.821,1.135,1.365,1.89c0.867-0.02,1.288-0.024,2.155-0.049c0.544,0.744,0.819,1.121,1.372,1.865
					c0.317-0.284,0.488-0.429,0.804-0.719c-0.098,0.455-0.15,0.684-0.251,1.135c0.373-0.158,0.553-0.235,0.925-0.396
					c-0.213,0.402-0.317,0.602-0.531,1.003c0.388-0.011,0.574-0.011,0.962-0.024c-0.3,0.309-0.453,0.462-0.757,0.771
					c0.364,0.131,0.553,0.205,0.914,0.336c-0.364,0.183-0.568,0.268-0.938,0.448c0.305,0.269,0.473,0.4,0.775,0.667
					c-0.393,0.041-0.583,0.058-0.971,0.096c0.273,0.26,0.41,0.399,0.683,0.659c-0.339-0.129-0.505-0.192-0.844-0.32
					c0.251,0.298,0.388,0.443,0.639,0.739c-0.327-0.165-0.495-0.251-0.822-0.418c0.224,0.323,0.314,0.489,0.538,0.812
					c0.305,0.506,0.47,0.75,0.779,1.253c0.76,0.093,1.132,0.136,1.896,0.224c0.348,0.798,0.555,1.197,0.907,1.996
					c0.785,0.096,1.157,0.14,1.933,0.23c0.35,0.785,0.542,1.181,0.894,1.963c0.375-0.203,0.55-0.303,0.922-0.506
					c-0.159,0.442-0.238,0.665-0.396,1.107c0.405-0.036,0.616-0.05,1.015-0.082c-0.283,0.355-0.424,0.533-0.707,0.886
					c0.094-0.005,0.143-0.003,0.236-0.008c0.517-0.222,0.768-0.342,1.284-0.569c-0.054-0.691-0.074-1.036-0.125-1.728
					c0.555-0.301,0.829-0.451,1.38-0.76c-0.065-0.697-0.095-1.039-0.16-1.739c0.546-0.328,0.816-0.495,1.362-0.828
					c-0.201-0.378-0.308-0.569-0.506-0.949c0.366,0.115,0.558,0.178,0.924,0.293c-0.088-0.441-0.131-0.676-0.219-1.116
					c0.306,0.254,0.455,0.385,0.763,0.64c0.038-0.464,0.061-0.695,0.098-1.157c0.183,0.366,0.284,0.555,0.473,0.924
					c0.095-0.438,0.143-0.656,0.235-1.091c0.104,0.416,0.15,0.621,0.254,1.037c0.176-0.405,0.265-0.596,0.438-1.003
					c0.016,0.443,0.035,0.654,0.052,1.094c0.163-0.388,0.229-0.585,0.394-0.971c-0.104,0.411-0.161,0.621-0.259,1.034
					c0.196-0.366,0.294-0.563,0.483-0.93c-0.123,0.402-0.18,0.613-0.306,1.018c0.21-0.355,0.317-0.536,0.528-0.891
					c0.489,0.803,0.724,1.203,1.219,2.006c0.845,0.05,1.267,0.077,2.113,0.121c0.506,0.801,0.774,1.198,1.285,1.996
					c0.87,0.046,1.294,0.071,2.164,0.109c0.517,0.793,0.776,1.192,1.298,1.983c0.247-0.334,0.364-0.505,0.613-0.839
					c-0.154,0.399-0.228,0.602-0.381,1.001c0.275-0.296,0.424-0.438,0.697-0.733c-0.193,0.375-0.289,0.555-0.483,0.93
					c0.229-0.301,0.339-0.454,0.571-0.76c0.021,0.388,0.042,0.579,0.071,0.965c0-0.424-0.003-0.635-0.003-1.058
					c0.094,0.404,0.134,0.606,0.231,1.011c0.037-0.426,0.058-0.651,0.095-1.074c0.055,0.416,0.091,0.628,0.144,1.044
					c0.627-0.443,0.942-0.665,1.56-1.113c0.604,0.388,0.901,0.582,1.506,0.971c0.638-0.452,0.94-0.689,1.572-1.146
					c0.619,0.383,0.946,0.574,1.568,0.951c0.629-0.461,0.929-0.699,1.552-1.165c0.046,0.416,0.082,0.626,0.125,1.045
					c0.082-0.418,0.134-0.621,0.213-1.039c0.006,0.424,0.009,0.634,0.018,1.058c0.117-0.413,0.163-0.621,0.284-1.031
					c-0.033,0.424-0.052,0.64-0.085,1.066c0.217-0.372,0.317-0.555,0.534-0.927c-0.051,0.435-0.08,0.646-0.128,1.081
					c0.275-0.314,0.422-0.465,0.696-0.78c-0.125,0.418-0.205,0.635-0.336,1.056c0.322-0.244,0.478-0.358,0.801-0.599
					c-0.169,0.427-0.244,0.626-0.413,1.056c0.385-0.076,0.574-0.102,0.959-0.178c-0.27,0.353-0.415,0.522-0.687,0.873
					c0.375,0.071,0.573,0.106,0.946,0.174c-0.342,0.241-0.511,0.361-0.861,0.602c0.354,2.557,0.534,3.836,0.916,6.394
					c-0.166,2.625-0.248,3.937-0.398,6.563c0.743,2.436,1.118,3.653,1.9,6.084c0.271,2.592,0.434,3.896,0.735,6.488
					c1.286,2.114,1.93,3.167,3.262,5.261c-0.265,0.372-0.382,0.558-0.647,0.93c0.413,0.049,0.62,0.071,1.033,0.121
					c-0.361,0.263-0.529,0.394-0.889,0.653c0.375,0.2,0.57,0.29,0.943,0.487c-0.41,0.125-0.62,0.191-1.03,0.314
					c0.29,0.328,0.431,0.498,0.718,0.829c-0.421-0.03-0.626-0.052-1.047-0.085c0.176,0.416,0.255,0.626,0.436,1.04
					c-0.381-0.178-0.574-0.269-0.958-0.446c0.044,0.459,0.073,0.691,0.115,1.154c-0.793,0.022-1.197,0.033-1.994,0.052
					c-0.402,0.768-0.59,1.151-0.998,1.916c-0.804,0.099-1.212,0.145-2.012,0.238c-0.348,0.798-0.534,1.195-0.886,1.994
					c-0.848,0.265-1.28,0.398-2.133,0.655c-0.355,3.123-0.53,4.685-0.875,7.81c-1.129,2.904-1.696,4.351-2.845,7.246
					c-0.425,3.096-0.645,4.644-1.06,7.738c-1.349,2.792-2.027,4.192-3.401,6.973c-1.252,2.833-1.893,4.236-3.167,7.057
					c-1.356,0.405-2.037,0.602-3.398,0.991c-1.184,0.762-1.786,1.142-2.979,1.892c-1.391-0.437-2.071-0.656-3.456-1.113
					c-1.418,0.189-2.132,0.282-3.557,0.454c-1.268-0.754-1.9-1.135-3.155-1.903c-0.364,0.331-0.55,0.492-0.919,0.823
					c-0.146-0.481-0.202-0.727-0.342-1.209c-0.37,0.328-0.565,0.493-0.94,0.818c-0.156-0.493-0.247-0.736-0.403-1.226
					C216.631,130.943,216.454,131.094,216.06,131.405z M218.86,115.691c0.244,0.306,0.358,0.464,0.604,0.768
					c0.632-0.213,0.949-0.322,1.581-0.542c0.382,0.577,0.574,0.867,0.957,1.438c0.623-0.246,0.938-0.374,1.561-0.623
					c0.394,0.555,0.6,0.829,0.994,1.383c0.108-0.405,0.16-0.606,0.267-1.011c-0.098,0.407-0.139,0.62-0.235,1.031
					c0.106-0.408,0.148-0.615,0.256-1.023c-0.098,0.411-0.138,0.612-0.235,1.023c-0.052-0.386-0.086-0.583-0.139-0.968
					c1.185-1.31,1.777-1.958,2.95-3.276c0.232-1.878,0.339-2.828,0.574-4.706c0.949-1.614,1.42-2.418,2.357-4.033
					c0.131-1.893,0.2-2.838,0.345-4.728c0.9-1.734,1.337-2.598,2.226-4.337c-0.473,0.159-0.7,0.232-1.17,0.391
					c-0.115-0.468-0.176-0.7-0.29-1.17c-0.326,0.347-0.485,0.519-0.81,0.867c-0.137-0.476-0.203-0.717-0.339-1.192
					c-0.143,0.284-0.208,0.429-0.351,0.713c-1.014,1.493-1.532,2.234-2.562,3.719c-0.41,1.878-0.635,2.825-1.044,4.704
					c-1.22,1.427-1.822,2.136-3.06,3.551c-0.653,1.797-0.985,2.699-1.639,4.496C220.545,113.583,219.992,114.283,218.86,115.691z
					 M239.277,81.533c-0.08-1.815-0.114-2.72-0.183-4.536c-0.583-1.934-0.861-2.907-1.417-4.846
					c0.259-2.056,0.381-3.082,0.646-5.138c-0.405-1.985-0.585-2.98-0.968-4.968c0.404-2.029,0.604-3.041,1.008-5.064
					c-0.178,0.224-0.275,0.331-0.455,0.555c-0.108-0.391-0.159-0.577-0.267-0.97c0.016,0.423-0.009,0.629,0.007,1.052
					c-0.098-0.402-0.135-0.596-0.235-0.998c0.131,0.314,0.213,0.468,0.348,0.779c-1.16,1.559-1.758,2.333-2.934,3.883
					c-0.626,1.922-0.932,2.882-1.564,4.801c-1.296,1.433-1.96,2.152-3.279,3.566c-0.797,1.852-1.206,2.768-2.015,4.613
					c-1.459,1.539-2.189,2.305-3.677,3.828c1.362,0.03,2.04,0.038,3.396,0.049c1.066,0.777,1.603,1.154,2.674,1.915
					c1.289-0.052,1.924-0.083,3.207-0.153c1.093,0.751,1.643,1.131,2.748,1.87C237.497,81.684,238.096,81.634,239.277,81.533z
					 M211.978,69.029c1.163-0.599,1.737-0.899,2.888-1.512c0.584-1.285,0.877-1.928,1.457-3.213c1.077-0.773,1.615-1.159,2.68-1.944
					c0.464-1.354,0.685-2.035,1.148-3.388c1.008-0.905,1.509-1.359,2.507-2.273c-0.202,0.148-0.303,0.224-0.506,0.369
					c-0.229-0.344-0.342-0.522-0.568-0.867c-0.041,0.44-0.038,0.662-0.077,1.105c-0.168-0.388-0.251-0.582-0.421-0.968
					c0.019,0.355,0.011,0.542,0.03,0.896c-0.922,0.788-1.376,1.176-2.302,1.955c-0.373,1.269-0.562,1.906-0.932,3.175
					c-0.977,0.755-1.471,1.121-2.454,1.865c-0.424,1.25-0.645,1.876-1.072,3.123c-1.017,0.686-1.523,1.028-2.55,1.706
					c0.21-0.057,0.312-0.084,0.522-0.142c-0.127,0.405-0.183,0.594-0.31,0.996c0.137-0.397,0.201-0.588,0.334-0.985
					c0.107,0.085,0.184,0.126,0.29,0.214C212.38,69.098,212.237,69.073,211.978,69.029z"/>
			</g>
			<g>
				<path fill="#F0F2DE" d="M299.393,143.795c-0.281-0.468-0.421-0.704-0.703-1.174c-0.555,0.197-0.857,0.293-1.409,0.487
					c0.069-0.558,0.124-0.833,0.195-1.392c-0.553-0.15-0.834-0.229-1.38-0.382c0.394-0.43,0.599-0.641,0.992-1.067
					c-0.333-1.375-0.5-2.062-0.828-3.437c0.527-1.37,0.789-2.062,1.312-3.435c-0.331-1.383-0.495-2.073-0.813-3.459
					c0.523-1.375,0.797-2.07,1.314-3.448c-0.284-1.264-0.428-1.89-0.71-3.15c-0.851-0.35-1.288-0.533-2.139-0.892
					c-1.082,0.394-1.616,0.597-2.696,0.982c-1.017-0.454-1.523-0.689-2.535-1.153c-1.086,0.374-1.63,0.565-2.718,0.93
					c-1.105-0.455-1.64-0.689-2.741-1.157c0.225,0.73,0.332,1.094,0.558,1.827c-0.467,0.503-0.711,0.755-1.186,1.258
					c0.364,0.566,0.544,0.85,0.904,1.417c-0.476,0.517-0.714,0.771-1.19,1.285c0.364,0.568,0.55,0.853,0.916,1.421
					c-0.498,0.276-0.743,0.411-1.246,0.684c0.143,0.533,0.216,0.795,0.363,1.332c-0.555-0.063-0.845-0.101-1.399-0.167
					c-0.206,0.528-0.314,0.801-0.523,1.33c-0.398-0.383-0.584-0.577-0.981-0.96c-1.036,0.347-1.557,0.519-2.592,0.858
					c-0.946-0.5-1.411-0.749-2.348-1.258c-1.042,0.331-1.584,0.49-2.631,0.813c-0.943-0.517-1.395-0.774-2.333-1.296
					c-0.99,0.31-1.484,0.465-2.479,0.766c-0.276,0.041-0.413,0.06-0.689,0.101c0.383,0.32,0.564,0.476,0.943,0.793
					c-0.462,0.223-0.675,0.347-1.137,0.574c0.379,0.339,0.56,0.498,0.94,0.834c-0.463,0.243-0.692,0.369-1.154,0.607
					c0.293,0.478,0.449,0.705,0.742,1.178c-0.567,0.079-0.854,0.125-1.419,0.202c-0.049,0.558-0.071,0.829-0.118,1.386
					c-0.505-0.26-0.773-0.388-1.274-0.65c-0.378,0.426-0.55,0.637-0.928,1.063c-0.636-0.506-0.947-0.763-1.585-1.271
					c-0.763,0.322-1.166,0.489-1.93,0.809c-0.653-0.519-0.968-0.785-1.614-1.304c-0.785,0.312-1.173,0.464-1.963,0.771
					c-0.645-0.525-0.975-0.788-1.618-1.315c-0.498,0.279-0.749,0.415-1.247,0.691c-0.055-0.561-0.076-0.833-0.131-1.394
					c-0.561-0.063-0.851-0.09-1.411-0.156c0.29-0.481,0.443-0.725,0.73-1.206c-0.418-0.38-0.629-0.571-1.042-0.954
					c0.629-1.108,0.938-1.649,1.561-2.759c-0.208-1.253-0.303-1.893-0.509-3.145c0.625-1.116,0.94-1.671,1.559-2.789
					c-0.205-1.258-0.306-1.893-0.503-3.149c0.618-1.119,0.935-1.679,1.545-2.803c-0.263,0.171-0.385,0.256-0.65,0.426
					c0.065-0.418,0.089-0.632,0.156-1.05c-0.125,0.402-0.18,0.61-0.306,1.012c0.098-0.413,0.15-0.618,0.245-1.031
					c-0.156,0.394-0.24,0.593-0.398,0.987c-0.052-0.484-0.075-0.724-0.13-1.208c-0.434,0.199-0.645,0.303-1.079,0.5
					c0.144-0.465,0.218-0.703,0.363-1.17c-0.479,0-0.724,0.003-1.2,0c0.317-0.373,0.47-0.563,0.788-0.936
					c-0.58-0.637-0.867-0.957-1.438-1.6c0.18-0.866,0.284-1.298,0.464-2.163c-0.622-0.604-0.938-0.914-1.557-1.523
					c0.134-0.88,0.201-1.314,0.332-2.195c-0.649-0.539-0.961-0.801-1.605-1.343c0.29-0.426,0.424-0.654,0.714-1.08
					c-0.416-0.279-0.626-0.407-1.037-0.688c0.449-0.228,0.687-0.348,1.135-0.575c-0.225-0.457-0.348-0.688-0.564-1.145
					c0.485,0.035,0.736,0.058,1.223,0.087c1.366-2.253,2.045-3.388,3.39-5.657c1.66-2.007,2.469-3.016,4.097-5.042
					c0.77-2.549,1.17-3.823,1.93-6.374c1.307-2.283,1.96-3.432,3.24-5.729c0.482-2.518,0.714-3.773,1.196-6.292
					c-0.198-0.322-0.277-0.479-0.473-0.801c-0.485,0.348-0.73,0.517-1.22,0.861c-0.349-0.486-0.525-0.727-0.872-1.214
					c-0.496,0.342-0.756,0.514-1.25,0.853c-0.346-0.49-0.514-0.733-0.861-1.225c-0.437,0.279-0.656,0.413-1.093,0.692
					c-0.021-0.559-0.021-0.826-0.043-1.381c-0.487-0.063-0.73-0.096-1.217-0.162c0.271-0.484,0.402-0.727,0.672-1.208
					c-0.342-0.377-0.511-0.566-0.85-0.94c0.495-0.646,0.741-0.968,1.233-1.617c-0.216-0.785-0.323-1.175-0.539-1.963
					c0.495-0.662,0.732-0.996,1.226-1.66c-0.211-0.801-0.296-1.192-0.503-1.994c0.489-0.667,0.715-1.009,1.2-1.676
					c-0.211-0.484-0.314-0.73-0.522-1.214c0.479-0.055,0.727-0.074,1.197-0.134c0.077-0.555,0.121-0.833,0.202-1.389
					c0.389,0.276,0.57,0.411,0.966,0.687c0.339-0.416,0.517-0.618,0.847-1.034c2.089,0.806,3.156,1.2,5.267,1.958
					c2.264-0.071,3.371-0.123,5.63-0.249c2.135,0.714,3.215,1.053,5.371,1.712c2.272-0.175,3.396-0.274,5.665-0.5
					c2.167,0.606,3.263,0.902,5.45,1.459c0.403-0.328,0.594-0.498,0.996-0.828c0.069,0.546,0.101,0.817,0.167,1.364
					c0.471-0.003,0.716-0.008,1.189-0.014c-0.218,0.511-0.342,0.769-0.56,1.28c0.367,0.327,0.557,0.489,0.922,0.812
					c-0.381,0.243-0.567,0.372-0.949,0.612c0.331,0.276,0.489,0.41,0.822,0.686c-0.379,0.246-0.577,0.363-0.959,0.607
					c0.329,0.295,0.498,0.443,0.831,0.738c-0.317,0.437-0.467,0.665-0.788,1.104c0.515-0.364,0.766-0.553,1.275-0.919
					c0.339,0.438,0.48,0.662,0.819,1.099c0.427-0.402,0.659-0.606,1.086-1.011c0.351,0.434,0.522,0.653,0.873,1.085
					c0.382-0.402,0.574-0.599,0.956-1.001c0.26-0.345,0.394-0.52,0.651-0.864c-0.297-0.582-0.456-0.875-0.751-1.455
					c0.415-0.555,0.635-0.837,1.044-1.394c-0.296-0.599-0.455-0.895-0.749-1.499c0.41-0.541,0.606-0.803,1.011-1.348
					c-0.314-0.243-0.473-0.38-0.788-0.623c0.385-0.063,0.586-0.096,0.971-0.159c-0.222-0.355-0.336-0.533-0.558-0.892
					c0.375,0.087,0.558,0.14,0.934,0.228c-0.116-0.429-0.162-0.651-0.271-1.081c0.314,0.227,0.464,0.334,0.785,0.561
					c-0.011-0.454-0.013-0.678-0.024-1.129c0.241,0.331,0.361,0.492,0.599,0.823c0.104-0.445,0.162-0.662,0.269-1.107
					c0.137,0.407,0.21,0.602,0.349,1.009c0.796-0.35,1.178-0.517,1.969-0.875c0.706,0.484,1.075,0.725,1.783,1.203
					c0.806-0.36,1.208-0.547,2.015-0.916c0.717,0.473,1.069,0.711,1.789,1.179c0.804-0.375,1.206-0.574,2.006-0.954
					c0.088,0.443,0.14,0.67,0.232,1.11c0.283-0.347,0.414-0.52,0.689-0.869c-0.033,0.464-0.049,0.694-0.082,1.159
					c0.348-0.235,0.534-0.347,0.881-0.582c-0.154,0.435-0.244,0.647-0.397,1.083c0.385-0.09,0.568-0.139,0.954-0.232
					c-0.26,0.361-0.385,0.553-0.647,0.913c0.382,0.06,0.577,0.09,0.965,0.153c-0.345,0.249-0.514,0.373-0.855,0.618
					c0.336,0.203,0.508,0.301,0.844,0.5c-0.41,0.238-0.626,0.358-1.036,0.594c0.208,0.448,0.314,0.672,0.522,1.118
					c-0.446,0.055-0.678,0.076-1.121,0.125c0.049,0.517,0.091,0.777,0.14,1.294c-0.5-0.02-0.757-0.033-1.261-0.055
					c0.327,0.287,0.48,0.432,0.809,0.713c-0.375,0.211-0.552,0.31-0.927,0.52c0.339,0.222,0.512,0.339,0.854,0.563
					c-0.375,0.227-0.567,0.336-0.94,0.561c0.215,0.027,0.325,0.041,0.544,0.068c0.724,0.399,1.078,0.602,1.808,0.993
					c0.797-0.443,1.194-0.67,1.991-1.119c0.776,0.388,1.17,0.577,1.955,0.96c0.815-0.454,1.225-0.681,2.034-1.141
					c0.791,0.375,1.185,0.556,1.975,0.927c0.379-0.374,0.58-0.557,0.959-0.933c0.118,0.531,0.173,0.799,0.29,1.33
					c0.479-0.063,0.708-0.09,1.187-0.153c-0.177,0.533-0.254,0.795-0.434,1.326c0.401,0.276,0.599,0.413,1.002,0.684
					c-0.372,0.716-0.555,1.069-0.932,1.786c0.355,0.667,0.531,1.003,0.894,1.67c-0.38,0.736-0.569,1.105-0.949,1.84
					c0.363,0.684,0.546,1.022,0.91,1.704c-0.379,0.741-0.586,1.116-0.971,1.856c0.128-0.216,0.201-0.333,0.329-0.55
					c0.218,0.326,0.331,0.493,0.55,0.818c-0.134-0.38-0.208-0.569-0.342-0.951c0.188,0.347,0.297,0.524,0.486,0.872
					c-0.104-0.4-0.153-0.604-0.257-1.001c0.205,0.345,0.303,0.518,0.508,0.862c-0.016-0.427-0.035-0.638-0.052-1.064
					c0.151,0.38,0.236,0.568,0.387,0.951c0.037-0.432,0.062-0.653,0.101-1.083c0.092,0.408,0.15,0.609,0.246,1.017
					c0.191-0.416,0.285-0.624,0.476-1.042c0.066,0.443,0.097,0.658,0.162,1.102c0.293-0.345,0.446-0.514,0.739-0.859
					c-0.055,0.454-0.091,0.684-0.147,1.137c0.366-0.238,0.549-0.363,0.916-0.602c0.144,0.638,0.221,0.96,0.366,1.597
					c0.606-0.136,0.904-0.208,1.512-0.35c0.251,0.594,0.379,0.895,0.636,1.485c0.603-0.224,0.895-0.342,1.496-0.569
					c0.323,0.547,0.488,0.823,0.818,1.37c0.416-0.281,0.635-0.426,1.05-0.71c-0.024,0.52-0.046,0.776-0.071,1.296
					c0.471-0.031,0.697-0.047,1.167-0.078c-0.251,0.459-0.388,0.69-0.645,1.149c0.401,0.229,0.614,0.35,1.017,0.577
					c-0.473,1.77-0.721,2.658-1.206,4.426c0.052,1.8,0.079,2.694,0.128,4.496c-1.137,1.4-1.723,2.098-2.879,3.487
					c-1.191,1.348-1.786,2.015-2.996,3.35c-1.701-0.025-2.555-0.033-4.25-0.085c-0.339,0.446-0.503,0.659-0.843,1.102
					c-0.323-0.396-0.486-0.59-0.809-0.987c-0.333,0.441-0.519,0.659-0.853,1.097c-0.34-0.396-0.498-0.591-0.836-0.99
					c-0.356,0.44-0.542,0.656-0.897,1.094c-0.257-0.411-0.387-0.61-0.646-1.017c-0.3,0.418-0.429,0.626-0.73,1.044
					c-0.211-0.435-0.322-0.656-0.535-1.094c-0.329,0.386-0.5,0.577-0.827,0.966c-0.19-0.459-0.284-0.695-0.47-1.152
					c0.061,0.421,0.097,0.635,0.156,1.056c-0.306-0.246-0.473-0.372-0.779-0.621c0.164,0.377,0.247,0.574,0.41,0.952
					c-0.294-0.271-0.447-0.413-0.743-0.687c0.227,0.227,0.336,0.339,0.563,0.563c-0.413,0.511-0.608,0.765-1.022,1.274
					c0.381,0.492,0.564,0.735,0.943,1.225c-0.416,0.536-0.606,0.812-1.024,1.345c0.379,0.503,0.56,0.755,0.945,1.258
					c-0.3,0.725-0.45,1.085-0.751,1.811c1.321-0.459,1.979-0.701,3.295-1.174c1.223,0.356,1.835,0.525,3.071,0.867
					c1.25-0.5,1.884-0.747,3.129-1.26c1.241,0.326,1.854,0.481,3.1,0.79c1.252-0.525,1.871-0.79,3.111-1.329
					c0.296,0.437,0.436,0.65,0.727,1.088c0.503-0.249,0.772-0.372,1.275-0.624c-0.027,0.558-0.045,0.837-0.072,1.395
					c0.522,0.084,0.799,0.131,1.321,0.216c-0.333,0.467-0.514,0.702-0.848,1.17c0.411,0.667,0.619,1,1.037,1.667
					c-0.402,0.763-0.604,1.143-1.007,1.906c0.418,0.686,0.635,1.034,1.059,1.72c-0.403,0.777-0.599,1.165-1.007,1.941
					c0.424,0.689,0.629,1.028,1.056,1.717c-0.461,0.353-0.681,0.53-1.146,0.883c0.208,0.498,0.294,0.755,0.5,1.253
					c-0.561,0.033-0.839,0.043-1.397,0.074c-0.137,0.552-0.192,0.826-0.329,1.375c-0.437-0.304-0.65-0.452-1.084-0.757
					c-1.28,0.543-1.92,0.801-3.206,1.331c-1.29-0.306-1.924-0.457-3.204-0.776c-1.297,0.517-1.966,0.771-3.268,1.274
					c-1.282-0.336-1.901-0.503-3.181-0.856c-1.148,0.417-1.725,0.621-2.874,1.026c-0.402,1.241-0.596,1.859-1.007,3.098
					c0.378,1.362,0.547,2.035,0.928,3.394c-0.47,1.397-0.692,2.095-1.168,3.492c0.381,1.362,0.567,2.045,0.952,3.41
					c-0.476,1.403-0.706,2.108-1.189,3.505c0.349,0.421,0.505,0.626,0.855,1.044c-0.568,0.17-0.842,0.258-1.411,0.424
					c0.01,0.552,0.006,0.826,0.016,1.378c-0.538-0.175-0.797-0.271-1.34-0.452c-0.333,0.481-0.492,0.725-0.828,1.2
					c-0.815-0.393-1.236-0.59-2.045-0.99c-0.845,0.438-1.258,0.654-2.1,1.085c-0.822-0.404-1.225-0.601-2.04-1.012
					c-0.839,0.427-1.264,0.635-2.104,1.059C300.703,143.797,300.265,143.797,299.393,143.795z M270.283,116.049
					c0.577-1.151,0.861-1.726,1.43-2.879c-0.235-1.26-0.342-1.887-0.568-3.147c0.571-1.167,0.861-1.75,1.426-2.923
					c-0.226-1.264-0.343-1.905-0.563-3.169c0.565-1.182,0.84-1.764,1.399-2.942c-0.26,0.188-0.371,0.281-0.63,0.473
					c0.038-0.421,0.062-0.629,0.101-1.05c-0.088,0.416-0.128,0.615-0.217,1.031c0.016-0.423,0.025-0.624,0.041-1.044
					c0.124,0.232,0.183,0.345,0.307,0.58c-0.561,1.154-0.839,1.73-1.403,2.884c0.219,1.261,0.342,1.893,0.57,3.153
					c-0.567,1.168-0.863,1.745-1.434,2.916c0.228,1.266,0.339,1.895,0.57,3.158c-0.577,1.181-0.857,1.775-1.438,2.95
					c0.264-0.186,0.392-0.276,0.658-0.462c-0.038,0.421-0.056,0.626-0.095,1.045c0.088-0.416,0.128-0.621,0.216-1.037
					c0.055,0.005,0.077,0.011,0.131,0.019C270.583,115.785,270.482,115.869,270.283,116.049z M298.676,107.486
					c0.323-0.375,0.476-0.566,0.799-0.944c-0.36-0.575-0.519-0.859-0.875-1.436c0.437-0.574,0.651-0.861,1.089-1.438
					c-0.356-0.588-0.525-0.875-0.876-1.465c0.421-0.675,0.615-1.017,1.035-1.693c-0.704,0.807-1.047,1.217-1.761,2.024
					c-0.889,0.15-1.329,0.213-2.22,0.355c-0.518,0.795-0.785,1.2-1.307,1.996c-0.9,0.017-1.349,0.024-2.246,0.033
					c-0.62,0.73-0.923,1.088-1.547,1.815c-0.205-0.361-0.319-0.547-0.524-0.908c-0.023,0.432-0.026,0.651-0.047,1.083
					c-0.137-0.397-0.213-0.594-0.349-0.99c-0.083,0.424-0.124,0.638-0.207,1.061c-0.076-0.418-0.117-0.632-0.193-1.05
					c-0.143,0.41-0.199,0.615-0.342,1.028c0.006-0.429,0.009-0.64,0.013-1.069c-0.193,0.385-0.294,0.588-0.492,0.973
					c0.061-0.426,0.091-0.651,0.156-1.078c-0.249,0.355-0.374,0.542-0.624,0.897c0.055-0.459,0.091-0.689,0.147-1.148
					c-0.396,0.213-0.604,0.316-1.005,0.525c0.191-0.424,0.287-0.637,0.479-1.063c-0.43,0.073-0.646,0.112-1.075,0.186
					c0.303-0.345,0.449-0.517,0.752-0.864c-0.406,0.082-0.602,0.123-1.004,0.205c0.359-0.222,0.537-0.336,0.892-0.558
					c-0.399,0.098-0.593,0.15-0.989,0.249c0.342-0.241,0.528-0.358,0.873-0.602c-0.021,0.033-0.036,0.046-0.055,0.079
					c-0.424,0.269-0.638,0.406-1.065,0.673c0.365,0.328,0.556,0.49,0.922,0.815c-0.427,0.273-0.645,0.407-1.072,0.681
					c0.364,0.342,0.54,0.517,0.903,0.855c-0.31,0.503-0.467,0.755-0.777,1.253c1.102-0.345,1.652-0.52,2.748-0.875
					c0.963,0.47,1.447,0.706,2.412,1.167c1.05-0.375,1.572-0.563,2.614-0.951c0.991,0.451,1.501,0.676,2.502,1.119
					C297.292,108.054,297.75,107.865,298.676,107.486z M309.218,94.101c0.153-0.396,0.218-0.594,0.371-0.99
					c-0.44-0.476-0.651-0.711-1.088-1.187c0.364-0.612,0.534-0.921,0.897-1.533c-0.378-0.531-0.567-0.793-0.938-1.324
					c0.404-0.563,0.605-0.839,1.011-1.406c-0.364-0.391-0.547-0.596-0.911-0.992c0.398-0.408,0.609-0.604,1.008-1.017
					c-0.357-0.405-0.531-0.607-0.886-1.012c0.4-0.421,0.587-0.632,0.987-1.053c-0.357-0.38-0.546-0.565-0.898-0.949
					c0.156-0.238,0.248-0.353,0.404-0.59c-0.061,0.418-0.104,0.623-0.165,1.044c-0.021-0.421-0.038-0.623-0.059-1.042
					c-0.066,0.421-0.097,0.626-0.162,1.05c-0.208-0.271-0.323-0.41-0.531-0.683c0.128,1.093,0.195,1.643,0.32,2.737
					c-0.635,0.866-0.952,1.293-1.591,2.154c0.025,1.085,0.025,1.629,0.049,2.715c-0.736,0.762-1.114,1.146-1.854,1.903
					c-0.134,0.833-0.201,1.25-0.336,2.081c0.205,0.37,0.306,0.559,0.517,0.925c0.431-0.399,0.647-0.604,1.079-1.004
					c0.35,0.438,0.528,0.659,0.878,1.096c0.396-0.396,0.602-0.593,0.995-0.992C308.675,94.063,308.855,94.073,309.218,94.101z
					 M285.738,86.745c0.221,0.487,0.333,0.725,0.554,1.209c0.495-0.165,0.739-0.247,1.227-0.414
					c-0.085,0.556-0.125,0.834-0.211,1.389c0.473,0.175,0.721,0.266,1.197,0.438c-0.366,0.416-0.549,0.623-0.916,1.037
					c0.374,0.095,0.563,0.142,0.938,0.237c-0.391,0.052-0.589,0.079-0.979,0.129c0.375,0.101,0.564,0.156,0.939,0.254
					c-0.391,0.055-0.594,0.071-0.985,0.128c0.134-0.109,0.219-0.156,0.354-0.265c0.893-0.154,1.334-0.241,2.223-0.4
					c0.413-0.94,0.624-1.408,1.03-2.346c0.845-0.481,1.269-0.719,2.109-1.203c0.134-1.02,0.19-1.534,0.323-2.554
					c0.669-0.927,1.011-1.383,1.67-2.316c-0.54,0.342-0.802,0.514-1.34,0.853c-0.345-0.435-0.528-0.656-0.873-1.091
					c-0.431,0.403-0.648,0.604-1.078,1.004c-0.355-0.438-0.522-0.662-0.871-1.102c-0.433,0.398-0.649,0.599-1.078,0.995
					c-0.225-0.484-0.333-0.728-0.558-1.212c-0.48,0.169-0.719,0.258-1.209,0.424c0.088-0.555,0.121-0.829,0.208-1.383
					c-0.458-0.175-0.691-0.266-1.148-0.441c0.359-0.416,0.542-0.62,0.897-1.034c-0.345-0.259-0.509-0.385-0.855-0.645
					c0.396-0.206,0.582-0.314,0.972-0.522c-0.346-0.26-0.51-0.383-0.85-0.643c0.397-0.219,0.59-0.334,0.984-0.555
					c-0.235-0.065-0.346-0.093-0.578-0.156c-0.586-0.454-0.873-0.689-1.453-1.143c-0.72,0.369-1.094,0.552-1.819,0.916
					c-0.639-0.476-0.956-0.713-1.591-1.192c-0.74,0.358-1.121,0.539-1.862,0.892c-0.703-0.479-1.039-0.719-1.735-1.203
					c-0.048,1.157-0.08,1.739-0.124,2.893c-0.621,0.776-0.943,1.157-1.57,1.931c0.066,1.009,0.113,1.521,0.184,2.529
					c-0.642,0.752-0.972,1.126-1.622,1.876c-0.032,0.738-0.035,1.11-0.071,1.846c0.657,0.484,0.984,0.719,1.64,1.198
					c0.824-0.339,1.239-0.506,2.057-0.853c0.733,0.495,1.082,0.738,1.82,1.225c0.818-0.35,1.233-0.525,2.048-0.88
					C284.542,86.658,284.93,86.69,285.738,86.745z"/>
			</g>
		</g>
	</g>
</g>
</svg>
